<svg xmlns="http://www.w3.org/2000/svg" viewBox="0 0 46 46">
  <g clip-path="url(#clip0_338_13245)">
<path d="M39.7433 0H6.25672C2.80133 0 0 2.80133 0 6.25672V39.7437C0 43.1987 2.80133 46 6.25672 46H39.7437C43.1991 46 46.0004 43.1987 46.0004 39.7433V6.25672C46 2.80133 43.1987 0 39.7433 0Z" fill="white"/>
<mask id="mask0_338_13245" style="mask-type:luminance" maskUnits="userSpaceOnUse" x="5" y="8" width="36" height="30">
<path d="M40.5141 8.37253H5.48451V37.6351H40.5141V8.37253Z" fill="white"/>
</mask>
<g mask="url(#mask0_338_13245)">
<path d="M28.8556 31.647C28.754 31.7476 28.7024 31.8878 28.7141 32.0302C28.7257 32.1726 28.7999 32.3024 28.9162 32.3851C29.9656 33.368 30.6412 34.6846 30.8272 36.1104C31.0954 37.0942 32.054 37.7236 33.0634 37.5789C34.0723 37.4338 34.8154 36.5601 34.796 35.5408C34.7767 34.5216 34.0005 33.6766 32.9866 33.5706C31.6587 33.3221 30.4481 32.647 29.5393 31.6475C29.3502 31.4583 29.0447 31.4583 28.8556 31.647Z" fill="#FB6500"/>
</g>
<mask id="mask1_338_13245" style="mask-type:luminance" maskUnits="userSpaceOnUse" x="5" y="8" width="36" height="30">
<path d="M40.5141 8.37253H5.48451V37.6351H40.5141V8.37253Z" fill="white"/>
</mask>
<g mask="url(#mask1_338_13245)">
<path d="M37.0565 28.4477C36.729 28.7742 36.5242 29.2032 36.4761 29.6632C36.2308 30.9925 35.5575 32.2054 34.5588 33.1168C34.4245 33.2453 34.376 33.4389 34.4331 33.6155C34.4906 33.792 34.6438 33.9205 34.8279 33.9452C35.0121 33.9704 35.194 33.8881 35.2969 33.7332C36.2794 32.6833 37.5965 32.0077 39.0223 31.8222C39.8417 31.6003 40.4355 30.8896 40.5074 30.0433C40.5793 29.1974 40.1143 28.3964 39.3439 28.0393C38.5735 27.6826 37.6621 27.8453 37.0628 28.4472H37.0565V28.4477Z" fill="#0082EF"/>
</g>
<path d="M31.3658 22.7502C30.8164 23.301 30.6322 24.1176 30.8914 24.8508C31.1511 25.5839 31.8083 26.1027 32.5814 26.1854C33.9106 26.4307 35.1235 27.1041 36.035 28.1027C36.1635 28.237 36.3571 28.2855 36.5336 28.228C36.7102 28.1709 36.8386 28.0173 36.8638 27.8336C36.8889 27.6494 36.8067 27.4675 36.6518 27.3646C35.6024 26.3817 34.9268 25.065 34.7408 23.6392C34.549 22.947 34.0036 22.4084 33.3087 22.2255C32.6133 22.0423 31.8739 22.2422 31.3658 22.7502Z" fill="#2DBC00"/>
<mask id="mask2_338_13245" style="mask-type:luminance" maskUnits="userSpaceOnUse" x="5" y="8" width="36" height="30">
<path d="M40.5141 8.37253H5.48451V37.6351H40.5141V8.37253Z" fill="white"/>
</mask>
<g mask="url(#mask2_338_13245)">
<path d="M30.3735 25.9073L30.3371 25.9437C29.3511 27.0299 28.0115 27.7307 26.5574 27.9216C25.8588 28.1053 25.313 28.6502 25.128 29.3483C24.9429 30.0464 25.1468 30.7903 25.6621 31.2961C26.2128 31.8455 27.0295 32.0297 27.7626 31.7701C28.4957 31.5104 29.0146 30.8537 29.0972 30.0801C29.3448 28.7504 30.0199 27.5375 31.0204 26.627C31.2189 26.4482 31.2355 26.1423 31.0567 25.9433C30.8784 25.7452 30.5725 25.7285 30.3735 25.9073Z" fill="#FFCC00"/>
</g>
<mask id="mask3_338_13245" style="mask-type:luminance" maskUnits="userSpaceOnUse" x="5" y="8" width="36" height="30">
<path d="M40.5141 8.37253H5.48451V37.6351H40.5141V8.37253Z" fill="white"/>
</mask>
<g mask="url(#mask3_338_13245)">
<path d="M18.1691 8.47136C14.5462 8.87071 11.2624 10.4187 8.90352 12.8382C7.966 13.7937 7.20412 14.87 6.6417 16.0196C4.85561 19.6151 5.15389 23.8953 7.42154 27.2083C8.06258 28.1759 9.1151 29.3856 10.0764 30.2445L9.64113 33.6676L9.59307 33.8127C9.58094 33.8549 9.58094 33.9034 9.5751 33.9457L9.56297 34.0544L9.5751 34.1631C9.60744 34.54 9.8316 34.8742 10.1681 35.0471C10.5045 35.2205 10.9066 35.2084 11.2323 35.0157H11.2502L11.3167 34.9672L12.3571 34.447L15.4594 32.8868C16.9338 33.3105 18.4615 33.5202 19.9956 33.5099C21.8927 33.5144 23.7758 33.1869 25.5596 32.5423C24.6644 32.2467 24.0938 31.3698 24.1868 30.4314C22.3419 31.0248 20.3914 31.2185 18.4656 31.0001L18.157 30.9579C17.4616 30.8672 16.7743 30.7234 16.1009 30.5285C15.7334 30.4143 15.3359 30.4561 15.0003 30.6435L14.9159 30.6857L12.3639 32.1856L12.2551 32.2521C12.1945 32.2885 12.1644 32.3002 12.1343 32.3002C12.04 32.2939 11.9676 32.2135 11.9708 32.1187L12.0678 31.7256L12.1828 31.2962L12.3643 30.5886L12.5759 29.8025C12.7169 29.3636 12.5611 28.8834 12.1887 28.6112C11.1855 27.8664 10.3145 26.959 9.61238 25.9258C7.81955 23.318 7.57877 19.944 8.98348 17.1076C9.44303 16.1885 10.0481 15.3354 10.7979 14.5673C12.7331 12.5714 15.4549 11.3014 18.4665 10.9749C19.5078 10.8603 20.5585 10.8603 21.5993 10.9749C24.5929 11.3194 27.3026 12.6078 29.2257 14.5915C29.9696 15.3597 30.5743 16.2244 31.0222 17.1435C31.621 18.3654 31.9233 19.6596 31.9233 20.9839C31.9233 21.1232 31.9112 21.262 31.9053 21.3949C32.6995 20.9062 33.7255 21.0261 34.385 21.6851L34.4757 21.7938C34.6307 19.8186 34.2507 17.838 33.3752 16.0605C32.802 14.8884 32.0468 13.8148 31.1372 12.8791C28.6615 10.3904 25.4002 8.83657 21.908 8.48214C20.665 8.34198 19.4116 8.33794 18.1691 8.47136Z" fill="#0082EF"/>
</g>
</g>
<defs>
<clipPath id="clip0_338_13245">
<rect width="46" height="46" fill="white"/>
</clipPath>
</defs>
</svg>
